<?xml version="1.0" encoding="UTF-8"?>
<svg width="752pt" height="752pt" version="1.1" viewBox="0 0 752 752" xmlns="http://www.w3.org/2000/svg">
 <path d="m546.49 219.72h-340.98c-5.2109 0-9.4727 4.2617-9.4727 9.4727v227.32c0 5.2109 4.2617 9.4727 9.4727 9.4727h75.773v56.828c0 3.7891 2.3672 7.1055 5.6836 8.5234 1.4219 0.94531 2.3672 0.94531 3.7891 0.94531 2.3672 0 4.7344-0.94531 6.6289-2.8398l64.406-63.461h184.7c5.2109 0 9.4727-4.2617 9.4727-9.4727v-227.32c0-5.2109-4.2617-9.4727-9.4688-9.4727zm-9.4727 227.32h-179.02c-2.3672 0-4.7344 0.94531-6.6289 2.8398l-51.148 50.199v-43.566c0-5.2109-4.2617-9.4727-9.4727-9.4727h-75.77v-208.38h322.04z"/>
</svg>
