<?xml version="1.0" encoding="UTF-8"?>
<svg width="752pt" height="752pt" version="1.1" viewBox="0 0 752 752" xmlns="http://www.w3.org/2000/svg">
 <path d="m281.29 200.78c-60.309 0-108.92 47.836-108.92 108.92 0 55.152 22.699 87.617 58.754 119.43 36.055 31.812 85.402 63.789 141.48 120.61v0.003906c0.89062 0.92188 2.1211 1.4414 3.4023 1.4414 1.2852 0 2.5117-0.51953 3.4062-1.4414 56.078-56.828 105.43-88.805 141.48-120.61 36.055-31.812 58.754-64.281 58.754-119.43 0-61.086-48.617-108.92-108.92-108.92-40.531 0-75.746 22.73-94.715 55.941-18.969-33.211-54.184-55.941-94.715-55.941zm0 9.4727c39.551 0 74.215 23.242 90.426 56.977 0.77734 1.668 2.4492 2.7305 4.2891 2.7305s3.5156-1.0625 4.293-2.7305c16.207-33.738 50.871-56.977 90.426-56.977 55.328 0 99.453 43.363 99.453 99.453 0 52.629-20.312 81.281-55.496 112.33-34.453 30.402-83.348 62.469-138.67 117.8-55.324-55.332-104.22-87.402-138.67-117.8-35.184-31.047-55.496-59.695-55.496-112.33 0-56.09 44.125-99.453 99.453-99.453z"/>
</svg>
